<svg xmlns="http://www.w3.org/2000/svg" width="20" height="21" viewBox="0 0 20 21">
    <defs>
        <linearGradient id="nqe1nxfs7a" x1="18%" x2="73.219%" y1="84.267%" y2="0%">
            <stop offset="0%" stop-color="#FFD51D"/>
            <stop offset="100%" stop-color="#F7981F"/>
        </linearGradient>
        <linearGradient id="amgx6guwab" x1="82%" x2="18%" y1="100%" y2="2.136%">
            <stop offset="0%" stop-color="#FFD521"/>
            <stop offset="100%" stop-color="#FFEC42"/>
        </linearGradient>
        <linearGradient id="ygvpnc6uec" x1="0%" x2="2419.482%" y1="84.267%" y2="84.267%">
            <stop offset="0%" stop-color="#4A4A4A"/>
            <stop offset="100%" stop-color="#F7981F"/>
        </linearGradient>
    </defs>
    <g fill="none" fill-rule="evenodd">
        <g>
            <g>
                <g>
                    <path fill="url(#nqe1nxfs7a)" d="M3.75 2.5L16.25 2.5 16.25 18.125 3.75 18.125z" transform="translate(-498 -553) translate(490 544) translate(8 9.056) rotate(-180 10 10.313)"/>
                    <path fill="url(#amgx6guwab)" d="M3.75 2.5L16.25 2.5 16.25 18.125 10 10.313z" transform="translate(-498 -553) translate(490 544) translate(8 9.056) rotate(-180 10 10.313)"/>
                    <path fill="#4A4A4A" d="M10 4.063c.173 0 .313.14.313.312V16.25c0 .173-.14.313-.313.313s-.313-.14-.313-.313V4.375c0-.173.14-.313.313-.313z" transform="translate(-498 -553) translate(490 544) translate(8 9.056) rotate(-90 10 10.313)"/>
                    <path fill="url(#ygvpnc6uec)" d="M2.5 6.25H3.5V7.25H2.5zM16.875 6.25H17.875V7.25H16.875zM2.5 13.75H3.5V14.75H2.5zM16.875 13.75H17.875V14.75H16.875z" transform="translate(-498 -553) translate(490 544) translate(8 9.056)"/>
                    <path fill="#D8D8D8" d="M3.75 6.25H16.25V7.25H3.75zM3.75 13.75H16.25V14.75H3.75z" transform="translate(-498 -553) translate(490 544) translate(8 9.056)"/>
                    <path fill="#FFF" d="M4.375 6.25L5 6.25 5 6.875 4.375 6.875z" transform="translate(-498 -553) translate(490 544) translate(8 9.056) rotate(90 4.687 6.562)"/>
                    <path fill="#FFF" d="M15 13.75L15.625 13.75 15.625 14.375 15 14.375z" transform="translate(-498 -553) translate(490 544) translate(8 9.056) rotate(90 15.313 14.062)"/>
                </g>
            </g>
        </g>
    </g>
</svg>
