<svg xmlns="http://www.w3.org/2000/svg" width="19" height="18" viewBox="0 0 19 18">
    <g fill="none" fill-rule="evenodd">
        <g fill="#9B9B9B">
            <g>
                <g>
                    <g>
                        <path d="M9.083 2c.529 0 .993.059 1.013.061.241.031.432.22.465.461l.15 1.093c.332.106.654.242.962.408l.865-.65c.166-.125.386-.141.566-.05l.086.054c.015.011.322.25.658.574l.16.158c.374.374.661.744.673.76.15.192.15.46.003.654l-.666.878c.161.31.293.635.393.97l1.07.152c.21.03.38.179.439.377l.019.087c.002.018.05.404.06.87l.001.226-.005.28c-.015.403-.054.717-.056.733-.031.241-.22.432-.461.465l-1.09.15c-.106.333-.243.655-.409.964l.648.863c.125.166.141.386.05.566l-.055.087c-.01.014-.249.32-.573.657l-.158.16c-.374.374-.744.661-.76.673-.192.15-.46.15-.654.003l-.88-.668c-.31.16-.634.292-.968.392l-.152 1.072c-.03.21-.179.38-.377.44l-.14.025c-.123.014-.444.047-.818.054L8.917 16l-.28-.005c-.403-.014-.717-.054-.733-.056-.241-.031-.432-.22-.465-.46l-.15-1.09c-.334-.105-.657-.242-.966-.409l-.86.647c-.167.125-.387.141-.567.05l-.087-.054c-.014-.011-.32-.25-.657-.574l-.16-.158c-.374-.374-.661-.744-.673-.76-.15-.192-.15-.46-.004-.654l.665-.877c-.161-.311-.293-.636-.393-.971l-1.067-.152c-.21-.03-.38-.179-.44-.377l-.025-.14c-.014-.123-.047-.444-.054-.818L2 8.917c0-.529.059-.993.061-1.013.031-.241.22-.432.461-.465l1.092-.15c.105-.333.242-.655.408-.963l-.649-.864c-.125-.166-.141-.386-.05-.566l.054-.087c.011-.014.25-.32.574-.657l.158-.16c.374-.374.744-.661.76-.673.192-.15.46-.15.654-.003l.88.667c.31-.161.634-.292.968-.393l.152-1.07c.03-.21.179-.38.377-.44l.14-.025c.122-.014.444-.047.818-.054L9.083 2zM9 3.3l-.277.006-.182 1.29-.796.24c-.172.05-.34.113-.502.185L7 5.137l-.73.378-1.046-.794-.255.248-.192.199.783 1.042-.394.732c-.086.159-.16.321-.225.488l-.09.252-.248.783-1.299.179L3.3 9l.006.275 1.287.183.239.797c.051.172.114.34.186.504l.116.242.378.73-.791 1.042.052.057.267.27.128.121 1.04-.78.732.395c.158.085.321.16.488.225l.254.09.783.247.177 1.296L9 14.7l.276-.006.183-1.292.797-.239c.17-.051.338-.113.501-.185l.242-.116.73-.378 1.045.794.256-.247.138-.142.053-.059-.781-1.04.395-.732c.085-.158.16-.32.224-.488l.09-.253.248-.783 1.297-.178L14.7 9l-.006-.277-1.288-.183-.24-.795c-.051-.171-.113-.34-.185-.502L12.864 7l-.38-.73.794-1.046-.307-.314-.14-.133-1.041.784-.733-.394c-.157-.085-.32-.16-.487-.225l-.253-.089-.783-.248-.179-1.301L9 3.3zm0 3.367c1.287 0 2.333 1.046 2.333 2.333 0 1.287-1.046 2.333-2.333 2.333-1.287 0-2.333-1.046-2.333-2.333 0-1.287 1.046-2.333 2.333-2.333zm0 1.3c-.569 0-1.033.464-1.033 1.033S8.43 10.033 9 10.033 10.033 9.57 10.033 9 9.57 7.967 9 7.967z" transform="translate(-20 -482) translate(0 47) translate(0 426) translate(20 9)"/>
                    </g>
                </g>
            </g>
        </g>
    </g>
</svg>
