<svg xmlns="http://www.w3.org/2000/svg" width="62" height="63" viewBox="0 0 62 63">
    <defs>
        <linearGradient id="pqu8vg580a" x1="100%" x2="0%" y1="100%" y2="0%">
            <stop offset="0%" stop-color="#FFD51D"/>
            <stop offset="100%" stop-color="#F7981F"/>
        </linearGradient>
    </defs>
    <g fill="none" fill-rule="evenodd">
        <g>
            <g>
                <g>
                    <g fill="url(#pqu8vg580a)" fill-rule="nonzero" transform="translate(-798 -492) translate(798 493) translate(.969 .969)">
                        <path d="M30.031 0c7.32 0 14.03 2.62 19.24 6.972.416-1.08.7-1.82.85-2.219l.721 2.459 1.434-.24-.428 1.2 2.045.62c-.487.381-1.026.736-1.617 1.063 4.838 5.331 7.786 12.41 7.786 20.176 0 15.945-12.426 28.987-28.122 29.972l-.001.018-.129-.01c-.589.034-1.182.051-1.779.051C13.445 60.063 0 46.617 0 30.032 0 13.444 13.445 0 30.031 0zm21.2 21.644l-.294.103c-2.53.902-4.912 2.208-7.048 3.877.057.254.117.56.177.914.954 5.647.094 12.043-3.965 18.102-2.742 4.092-6.788 7.675-12.29 10.614.41.868 1.04 1.525 1.845 2.01.534.323 1.114.549 1.694.693.215.053.397.088.534.109 1.6-.105 3.167-.344 4.685-.706 7.58-4.032 10.67-6.975 14.077-13.598.703-1.37 1.247-2.816 1.643-4.332 1.27-4.86.981-10.094-.276-15.115-.237-.949-.491-1.808-.745-2.562l-.037-.11zM5.935 44.485l.212.345c4.527 7.292 12.3 12.357 21.3 13.178-.676-.644-1.214-1.43-1.579-2.369-.348-.074-.791-.18-1.32-.324-1.473-.402-3.11-.967-4.87-1.725-4.676-2.012-9.347-4.987-13.743-9.105zM2.74 23.333l-.09.38c-.466 2.031-.712 4.146-.712 6.318 0 3.163.522 6.204 1.486 9.041.948 1.099 1.924 2.14 2.924 3.124 4.49 4.416 9.295 7.548 14.095 9.615 1.675.72 3.226 1.256 4.615 1.634.482.132.907.234 1.272.31l.12.025c3.705-1.924 6.713-4.132 9.086-6.58C21.484 44.765 9.366 35.934 2.74 23.333zm53.711-2.876l-.05.006c-1.12.134-2.228.343-3.313.624l.017.049c.269.8.537 1.709.788 2.709 1.329 5.309 1.635 10.854.271 16.074-.431 1.65-1.025 3.23-1.794 4.728-1.649 3.206-3.252 5.618-5.265 7.695 6.7-5.133 11.02-13.218 11.02-22.31 0-3.363-.59-6.587-1.674-9.575zM8.303 12.223l-.155.189c-1.962 2.434-3.526 5.202-4.594 8.205C9.902 34.166 22.708 43.565 37.55 45.549l-.483-.067c.511-.627.985-1.267 1.423-1.92 1.59-2.374 2.649-4.804 3.274-7.212-.838-.023-1.84-.12-2.991-.32-2.483-.434-5.17-1.277-8.002-2.625-7.718-3.672-15.35-10.48-22.449-21.152l-.02-.03zm9.777-7.625l-.18.086c-3.118 1.496-5.919 3.55-8.27 6.033l.306.463c6.91 10.388 14.276 16.958 21.669 20.476 2.67 1.27 5.189 2.061 7.501 2.465 1.238.215 2.27.299 3.071.298.433-2.604.384-5.157-.021-7.558-.065-.382-.134-.718-.202-1.005l.035.155c-5.335-1.797-10.495-5.525-15.38-10.61-2.448-2.548-4.668-5.275-6.622-8.002-.685-.955-1.288-1.843-1.803-2.64l-.104-.16zm32.21 5.969l-.025.008c-.103.029-.226.064-.367.106-.555.165-1.175.373-1.845.625-1.913.72-3.827 1.652-5.607 2.813-2.836 1.849-5.047 4.093-6.42 6.762 2.167 1.433 4.363 2.545 6.574 3.291 3.795-2.992 8.319-4.915 13.1-5.572-1.332-2.99-3.172-5.704-5.41-8.033zM40.62 4l-.043.014c-.1.03-.222.067-.368.115-.494.162-1.048.369-1.645.623-1.712.73-3.425 1.696-5.02 2.926-2.292 1.767-4.141 3.928-5.4 6.522 2.054 2.126 4.152 3.995 6.28 5.563 1.546-2.893 3.945-5.3 6.964-7.268 1.908-1.244 3.945-2.236 5.982-3.003.463-.175.904-.33 1.32-.465-2.366-2.104-5.09-3.813-8.07-5.027zM30.03 1.937c-1.733 0-3.43.157-5.076.458-1.328 1.205-2.37 2.691-3.05 4.349 1.468 2.017 3.085 4.027 4.83 5.953 1.382-2.588 3.302-4.76 5.626-6.553 1.734-1.337 3.588-2.383 5.443-3.173l-.076.034C35.282 2.31 32.7 1.938 30.03 1.938zm-8.373 1.269l-.086.028c-.57.18-1.131.376-1.684.59.224.347.468.712.727 1.093.307-.595.655-1.167 1.043-1.711z"/>
                    </g>
                    <path stroke="#979797" d="M56.313.469c.375 0 .717.14.976.37l-.012-.01.016-.013c.18-.148.399-.26.64-.313L58.08.48c.511-.008.89.148 1.162.39.303.269.478.648.478 1.069 0 .405-.165.772-.43 1.038l.063-.07.077.093c.12.161.208.348.253.55l.027.155c.008.511-.149.89-.39 1.162-.27.303-.649.478-1.07.478-.34 0-.652-.116-.901-.31h0l-3.16.795 1.083-2.856c-.349-.493-.427-.755-.427-1.035 0-.406.164-.773.43-1.04.266-.265.633-.43 1.038-.43z" transform="translate(-798 -492) translate(798 493) translate(.969 .969)"/>
                </g>
            </g>
        </g>
    </g>
</svg>
