<svg xmlns="http://www.w3.org/2000/svg" width="18" height="18" viewBox="0 0 18 18">
    <g fill="none" fill-rule="evenodd">
        <g fill="#9B9B9B">
            <g>
                <path d="M6.006 4h8.988C15.55 4 16 4.448 16 5s-.45 1-1.006 1H6.006C5.45 6 5 5.552 5 5s.45-1 1.006-1zm0 4h8.988C15.55 8 16 8.448 16 9s-.45 1-1.006 1H6.006C5.45 10 5 9.552 5 9s.45-1 1.006-1zm8.996 4c.55 0 .998.448.998 1s-.447 1-.998 1H5.998C5.448 14 5 13.552 5 13s.447-1 .998-1h9.004zM3 12c.552 0 1 .448 1 1s-.448 1-1 1-1-.448-1-1 .448-1 1-1zm0-4c.552 0 1 .448 1 1s-.448 1-1 1-1-.448-1-1 .448-1 1-1zm0-4c.552 0 1 .448 1 1s-.448 1-1 1-1-.448-1-1 .448-1 1-1z" transform="translate(-1011 -349) translate(1011 349)"/>
            </g>
        </g>
    </g>
</svg>
