<svg xmlns="http://www.w3.org/2000/svg" width="20" height="20" viewBox="0 0 20 20">
    <defs>
        <linearGradient id="5pd5q63wha" x1="0%" x2="100%" y1="43.754%" y2="55.049%">
            <stop offset="0%" stop-color="#FFD51D"/>
            <stop offset="100%" stop-color="#F7981F"/>
        </linearGradient>
        <linearGradient id="yxc0a0v38b" x1="-10.549%" x2="100%" y1="50%" y2="50%">
            <stop offset="0%" stop-color="#FFEB42"/>
            <stop offset="100%" stop-color="#FFD31D"/>
        </linearGradient>
    </defs>
    <g fill="none" fill-rule="evenodd">
        <g>
            <g>
                <path fill="url(#5pd5q63wha)" d="M3.926 10.352l1.699 1.699 1.7-1.7c.468-.468 1.229-.468 1.698 0 .47.47.47 1.23 0 1.7L7.324 13.75l1.7 1.7c.468.468.468 1.229 0 1.698-.47.47-1.23.47-1.7 0L5.625 15.45l-1.7 1.7c-.468.468-1.229.468-1.698 0-.47-.47-.47-1.23 0-1.7l1.699-1.699-1.7-1.7c-.468-.468-.468-1.229 0-1.698.47-.47 1.23-.47 1.7 0z" transform="translate(-513 -884) translate(513 884) rotate(45 5.625 13.75)"/>
                <path fill="#979797" d="M5 17.5H6V18.5H5z" transform="translate(-513 -884) translate(513 884) rotate(90 5.312 17.813)"/>
                <path fill="url(#yxc0a0v38b)" d="M12.354 2.53l1.7 1.7 1.698-1.7c.47-.469 1.23-.469 1.7 0 .469.47.469 1.23 0 1.7l-1.7 1.698 1.7 1.7c.469.469.469 1.23 0 1.698-.47.47-1.23.47-1.7 0l-1.699-1.699-1.699 1.7c-.469.469-1.23.469-1.699 0-.469-.47-.469-1.23 0-1.7l1.7-1.699-1.7-1.699c-.469-.469-.469-1.23 0-1.699.47-.469 1.23-.469 1.7 0z" transform="translate(-513 -884) translate(513 884) rotate(45 14.053 5.928)"/>
                <path fill="#FFF" d="M14.375 1.875H15.375V2.875H14.375z" transform="translate(-513 -884) translate(513 884) rotate(90 14.688 2.187)"/>
            </g>
        </g>
    </g>
</svg>
