<svg xmlns="http://www.w3.org/2000/svg" width="128" height="128" viewBox="0 0 128 128">
    <defs>
        <linearGradient id="0hjubv4lca" x1="90.5%" x2="9.5%" y1="100%" y2="0%">
            <stop offset="0%" stop-color="#FBB12E"/>
            <stop offset="100%" stop-color="#FFD31D"/>
        </linearGradient>
    </defs>
    <g fill="none" fill-rule="evenodd">
        <g>
            <g>
                <g>
                    <path fill="url(#0hjubv4lca)" d="M37 51c19.137 0 34.686 15.358 34.995 34.421L72 86H0c0-19.33 15.67-35 35-35h2zM36 6c11.046 0 20 8.954 20 20s-8.954 20-20 20-20-8.954-20-20S24.954 6 36 6z" transform="translate(-1142 -218) translate(1142 218) translate(28 22)"/>
                    <path fill="#D8D8D8" d="M49.652 28.395c3.697 2.685 2.1-6.342-4.79-27.083-2.242 2.472-3.363 6.285-3.363 11.44 0 7.732 2.608 11.614 8.153 15.643z" transform="translate(-1142 -218) translate(1142 218) translate(28 22) rotate(144 46.544 15.084)"/>
                    <path fill="#D8D8D8" d="M27.496 30.376C36.78 12.09 32.243 2.149 24.053 2.149c-4.972 6.442-4.41 9.313-3.922 15.594.924 5.537 3.962 9.587 7.365 12.633z" transform="translate(-1142 -218) translate(1142 218) translate(28 22) rotate(52 26.239 16.262)"/>
                    <path fill="#D8D8D8" stroke="#FFF" stroke-width="4" d="M42 72H50V73H42z" transform="translate(-1142 -218) translate(1142 218) translate(28 22)"/>
                </g>
            </g>
        </g>
    </g>
</svg>
