<svg xmlns="http://www.w3.org/2000/svg" xmlns:xlink="http://www.w3.org/1999/xlink" width="33" height="32" viewBox="0 0 33 32">
    <defs>
        <linearGradient id="prefix__b" x1="50%" x2="50%" y1="0%" y2="100%">
            <stop offset="0%" stop-color="#FFD420"/>
            <stop offset="100%" stop-color="#FFEC42"/>
        </linearGradient>
        <linearGradient id="prefix__c" x1="49.846%" x2="50.168%" y1="0%" y2="100%">
            <stop offset="0%" stop-color="#FFD51D"/>
            <stop offset="100%" stop-color="#F7981F"/>
        </linearGradient>
        <linearGradient id="prefix__e" x1="49.383%" x2="50.67%" y1="0%" y2="100%">
            <stop offset="0%" stop-color="#FFD51D"/>
            <stop offset="100%" stop-color="#F7981F"/>
        </linearGradient>
        <linearGradient id="prefix__f" x1="0%" x2="104.272%" y1="24.49%" y2="75.51%">
            <stop offset="0%" stop-color="#FFD51D"/>
            <stop offset="100%" stop-color="#F7981F"/>
        </linearGradient>
        <path id="prefix__a" d="M0 3l1.917-1.877c.374-.366.876-.571 1.4-.571H6L8 1.4V5H7v1.081l1 2.165L7 10l1 2.073V14H7l1 1.989V17H0V3z"/>
    </defs>
    <g fill="none" fill-rule="evenodd" transform="rotate(90 16 16)">
        <g transform="translate(11 2)">
            <mask id="prefix__d" fill="#fff">
                <use xlink:href="#prefix__a"/>
            </mask>
            <use fill="url(#prefix__b)" xlink:href="#prefix__a"/>
            <path fill="url(#prefix__c)" d="M2.5-4c.276 0 .5.224.5.5v17c0 .276-.224.5-.5.5s-.5-.224-.5-.5v-17c0-.276.224-.5.5-.5z" mask="url(#prefix__d)"/>
            <path fill="url(#prefix__e)" d="M7 0c.552 0 1 .448 1 1v16c0 .552-.448 1-1 1s-1-.448-1-1V1c0-.552.448-1 1-1z" mask="url(#prefix__d)"/>
        </g>
        <path fill="#FFF" d="M16 5H17V6H16z" transform="rotate(90 16.5 5.5)"/>
        <path fill="url(#prefix__f)" d="M19 19c1.657 0 3 1.343 3 3v4c0 1.657-1.343 3-3 3h-8c-1.657 0-3-1.343-3-3v-4c0-1.657 1.343-3 3-3h8zm-4 4c-1.105 0-2 .895-2 2s.895 2 2 2 2-.895 2-2-.895-2-2-2z"/>
        <path fill="#D8D8D8" d="M19 26H20V27H19z" transform="rotate(90 19.5 26.5)"/>
        <rect width="1" height="4" x="15" y="26" fill="#4A4A4A" rx=".5"/>
    </g>
</svg>
