<svg xmlns="http://www.w3.org/2000/svg" width="19" height="18" viewBox="0 0 19 18">
    <g fill="none" fill-rule="evenodd">
        <g fill="#9B9B9B">
            <g>
                <g>
                    <g>
                        <path d="M9.49 6.94c.337.033.63-.236.659-.597.028-.36-.22-.677-.555-.708-.196-.018-.396-.027-.594-.027-3.86 0-7 3.434-7 7.656 0 .361.273.654.609.654.336 0 .608-.293.608-.654 0-3.5 2.594-6.347 5.783-6.347.163 0 .328.008.49.023m4.623 1.095c-.227-.266-.612-.283-.86-.039-.247.245-.263.659-.036.925 1.01 1.18 1.566 2.723 1.566 4.343 0 .361.272.654.608.654.336 0 .609-.293.609-.654 0-1.95-.67-3.806-1.887-5.229m-1.032-1.989l-2.949 6.835C9.872 13.582 9.42 14 8.917 14c-.407 0-.765-.223-.958-.596-.216-.419-.193-.95.06-1.389l3.86-6.668c.19-.33.588-.443.906-.258.319.185.448.604.296.957" transform="translate(-20 -85) translate(0 47) translate(0 29) translate(20 9)"/>
                    </g>
                </g>
            </g>
        </g>
    </g>
</svg>
