<svg xmlns="http://www.w3.org/2000/svg" width="19" height="18" viewBox="0 0 19 18">
    <g fill="none" fill-rule="evenodd">
        <g fill="#9B9B9B">
            <g>
                <g>
                    <g>
                        <path d="M14.756 7.496c0-.284-.222-.596-.494-.596H3.5c-.14 0-.255.2-.255.347v7.205c0 .137.107.248.238.248h11.256c.01 0 .018-.008.018-.018V7.496zM3.156 4.95c0 .36.28.65.623.65h8.954V4.585c0-.157-.122-.285-.273-.285H3.78c-.345 0-.623.291-.623.65zM16 7.496v7.186c0 .727-.566 1.318-1.262 1.318H3.482C2.665 16 2 15.305 2 14.452V4.944C2 3.872 2.834 3 3.86 3h8.602c.856 0 1.516.728 1.516 1.624V5.6h.284c.959 0 1.738.895 1.738 1.896zm-2.907 2.54c.203.212.319.504.319.805 0 .299-.116.591-.32.804-.202.211-.482.333-.77.333-.286 0-.566-.122-.77-.333-.202-.213-.318-.505-.318-.804 0-.301.116-.593.319-.805.203-.213.483-.333.77-.333.287 0 .567.12.77.333z" transform="translate(-20 -438) translate(0 47) translate(0 382) translate(20 9)"/>
                    </g>
                </g>
            </g>
        </g>
    </g>
</svg>
