<svg xmlns="http://www.w3.org/2000/svg" width="19" height="18" viewBox="0 0 19 18">
    <g fill="none" fill-rule="evenodd">
        <g fill="#9B9B9B">
            <g>
                <g>
                    <g>
                        <path d="M3.217 13.8v-3.15h4.261v.148c0 .249.244.452.496.452h2.052c.252 0 .496-.203.496-.452v-.148h4.258l-.001 3.15H3.217zm5.174-3.45H9.61v-.3H8.39v.3zm6.391-3.75l-.001 3.15h-4.26v-.218c0-.248-.243-.382-.495-.382H7.974c-.252 0-.496.134-.496.382v.218h-4.26V6.6h11.564zm-7.76-1.2h3.956V4.2H7.022v1.2zm8.8.141c-.114-.112-.27-.141-.43-.141h-3.196V3.6c0-.331-.303-.6-.639-.6H6.443c-.336 0-.639.269-.639.6v1.8H2.61c-.336 0-.609.2-.609.53v8.47c0 .331.273.6.609.6h12.778c.336 0 .609-.268.609-.6L16 5.948c0-.159-.064-.294-.178-.407z" transform="translate(-20 -129) translate(0 47) translate(0 73) translate(20 9)"/>
                    </g>
                </g>
            </g>
        </g>
    </g>
</svg>
