<svg xmlns="http://www.w3.org/2000/svg" width="20" height="20" viewBox="0 0 20 20">
    <defs>
        <linearGradient id="censm8is7a" x1="100%" x2="0%" y1="87.807%" y2="12.193%">
            <stop offset="0%" stop-color="#FBB12E"/>
            <stop offset="100%" stop-color="#FFD31D"/>
        </linearGradient>
        <linearGradient id="w39mck3kub" x1="30.359%" x2="100%" y1="48.146%" y2="52.216%">
            <stop offset="0%" stop-color="#FFEB42"/>
            <stop offset="100%" stop-color="#FFD31D"/>
        </linearGradient>
    </defs>
    <g fill="none" fill-rule="evenodd">
        <g>
            <g>
                <g>
                    <g transform="translate(-577 -720) translate(569 710) translate(8 8) translate(0 2)">
                        <path fill="url(#censm8is7a)" d="M4.385 3.75v2.5h10.49c1.105 0 2 .895 2 2v5.974c0 1.103-.893 1.998-1.996 2l-9.373.02c-1.657.003-3.003-1.337-3.006-2.994V5.634c0-1.04.844-1.884 1.885-1.884z"/>
                        <path fill="url(#w39mck3kub)" d="M4.375 3.75H13c1.105 0 2 .895 2 2v.5H4.375c-.69 0-1.25-.56-1.25-1.25s.56-1.25 1.25-1.25z"/>
                        <path fill="#D8D8D8" d="M15 10h1.5c.552 0 1 .448 1 1v.5c0 .552-.448 1-1 1H15c-.69 0-1.25-.56-1.25-1.25S14.31 10 15 10z"/>
                        <circle cx="15" cy="11.25" r="1" fill="#4A4A4A"/>
                        <rect width="9.375" height="1" x="4.375" y="5" fill="#FFF" rx=".5"/>
                    </g>
                </g>
            </g>
        </g>
    </g>
</svg>
