<svg xmlns="http://www.w3.org/2000/svg" width="16" height="16" viewBox="0 0 16 16">
    <g fill="none" fill-rule="evenodd">
        <g fill="#333">
            <g>
                <path d="M8 4c.276 0 .5.224.5.5v3h3c.245 0 .45.177.492.41L12 8c0 .276-.224.5-.5.5h-3v3c0 .245-.177.45-.41.492L8 12c-.276 0-.5-.224-.5-.5v-3h-3c-.245 0-.45-.177-.492-.41L4 8c0-.276.224-.5.5-.5h3v-3c0-.245.177-.45.41-.492z" transform="translate(-1059 -396) translate(1059 396) rotate(-45 8 8)"/>
            </g>
        </g>
    </g>
</svg>
