<svg xmlns="http://www.w3.org/2000/svg" width="19" height="18" viewBox="0 0 19 18">
    <g fill="none" fill-rule="evenodd">
        <g fill="#9B9B9B">
            <g>
                <g>
                    <g>
                        <path d="M6.106 3.997c2.626.374 4.653 2.565 4.68 5.215-.594.248-1.247.374-1.927.354-.417-2.156-2.067-3.877-4.185-4.398.41-.462.894-.858 1.432-1.17m7.523 1.54c-.081.577-.265 1.118-.534 1.605-.33-1.545-1.277-2.872-2.58-3.723 1.26.343 2.351 1.1 3.114 2.118M9.185 14.32c.3.048.6.072.9.072.472 0 .941-.058 1.396-.17-.592.283-1.24.467-1.923.533-.14-.135-.262-.281-.373-.435m-.388-.7c-.13-.325-.205-.667-.228-1.013.38.076.76.114 1.135.114 1.998 0 3.877-1.039 4.99-2.724-.153.882-.507 1.696-1.014 2.393-1.314 1.178-3.139 1.679-4.883 1.23M14.46 7.1c.159.454.261.932.302 1.428-.94 2.535-3.576 4.038-6.178 3.46.05-.415.178-.823.389-1.203l.023.001c2.442 0 4.58-1.509 5.464-3.685m-1.869.779c-.34.408-.749.758-1.206 1.03-.155-2.539-1.955-4.652-4.373-5.34.51-.188 1.054-.304 1.619-.34 2.145.593 3.758 2.427 3.96 4.65m-6.968 3.337c.08-1.17.537-2.262 1.303-3.136.494.692.792 1.532.816 2.439-.61 1.346-.516 2.91.227 4.169-.606-.11-1.18-.313-1.705-.596-.484-.866-.71-1.856-.64-2.876M3.217 8.981c.003-.983.253-1.909.69-2.72.24.032.475.083.702.151-.697.735-1.163 1.623-1.392 2.57m.55 2.477c-.348-1.731.148-3.555 1.462-4.806.492.235.934.56 1.305.952-.894.987-1.429 2.232-1.52 3.571-.052.785.05 1.555.297 2.274-.65-.54-1.18-1.219-1.544-1.991M9 2C5.134 2 2 5.134 2 9c0 2.18.996 4.126 2.558 5.41l.067.08.016-.014C5.838 15.429 7.351 16 9 16c3.866 0 7-3.134 7-7s-3.134-7-7-7" transform="translate(-20 -305) translate(0 47) translate(0 249) translate(20 9)"/>
                    </g>
                </g>
            </g>
        </g>
    </g>
</svg>
