<svg xmlns="http://www.w3.org/2000/svg" width="20" height="20" viewBox="0 0 20 20">
    <defs>
        <linearGradient id="c3rqmoh9ha" x1="100%" x2="0%" y1="76.446%" y2="24.684%">
            <stop offset="0%" stop-color="#FFD521"/>
            <stop offset="100%" stop-color="#FFEC42"/>
        </linearGradient>
        <linearGradient id="6vo4ux8amb" x1="0%" x2="100%" y1="49.07%" y2="50.93%">
            <stop offset="0%" stop-color="#FFD51D"/>
            <stop offset="100%" stop-color="#F7981F"/>
        </linearGradient>
    </defs>
    <g fill="none" fill-rule="evenodd">
        <g>
            <g>
                <g>
                    <path fill="url(#c3rqmoh9ha)" d="M4.125 6.875h11.75c.552 0 1 .448 1 1v9H3.125v-9c0-.552.448-1 1-1z" transform="translate(-579 -600) translate(571 590) translate(8 10)"/>
                    <path fill="url(#6vo4ux8amb)" d="M3.125 15L16.875 15 16.875 16.875 3.136 16.875z" transform="translate(-579 -600) translate(571 590) translate(8 10) rotate(-180 10 15.938)"/>
                    <path fill="#D8D8D8" d="M9.063 5.313L11.563 5.313 11.563 5.938 9.063 5.938z" transform="translate(-579 -600) translate(571 590) translate(8 10) rotate(90 10.313 5.625)"/>
                    <path fill="#D8D8D8" d="M4.688 5.313L7.188 5.313 7.188 5.938 4.688 5.938z" transform="translate(-579 -600) translate(571 590) translate(8 10) rotate(90 5.937 5.625)"/>
                    <path fill="#D8D8D8" d="M13.438 5.313L15.938 5.313 15.938 5.938 13.438 5.938z" transform="translate(-579 -600) translate(571 590) translate(8 10) rotate(90 14.688 5.625)"/>
                    <path fill="#4A4A4A" d="M5.625 3.125L6.25 3.125 6.25 3.75 5.625 3.75z" transform="translate(-579 -600) translate(571 590) translate(8 10) rotate(90 5.937 3.437)"/>
                    <path fill="#4A4A4A" d="M10 3.125L10.625 3.125 10.625 3.75 10 3.75z" transform="translate(-579 -600) translate(571 590) translate(8 10) rotate(90 10.313 3.437)"/>
                    <path fill="#4A4A4A" d="M14.375 3.125L15 3.125 15 3.75 14.375 3.75z" transform="translate(-579 -600) translate(571 590) translate(8 10) rotate(90 14.688 3.438)"/>
                    <path fill="#FFF" fill-rule="nonzero" d="M3.125 10.862l1.186.932c.587.464 1.42.446 1.988-.043l.927-.798c.356-.308.885-.303 1.236.01l.806.72c.588.526 1.477.53 2.07.01l.784-.688c.371-.325.93-.307 1.28.041l.77.767c.612.609 1.6.607 2.21-.005.025-.025.05-.05.073-.078l.42-.507v-.927l-.892 1.024c-.014.017-.029.032-.044.047-.365.367-.959.368-1.326.003l-.77-.767c-.582-.58-1.515-.61-2.133-.067l-.783.687c-.356.312-.89.31-1.243-.006l-.805-.72c-.585-.522-1.467-.53-2.061-.018l-.927.799c-.34.293-.84.304-1.193.025l-1.573-1.238v.797z" transform="translate(-579 -600) translate(571 590) translate(8 10)"/>
                </g>
            </g>
        </g>
    </g>
</svg>
