<svg xmlns="http://www.w3.org/2000/svg" width="19" height="18" viewBox="0 0 19 18">
    <g fill="none" fill-rule="evenodd">
        <g fill="#9B9B9B">
            <g>
                <g>
                    <g>
                        <path d="M14.733 8.392c-.098.16-.32.291-.535.383l-.302-1.053c.23-.028.485-.026.655.062.074.038.157.101.208.278.049.173.014.264-.026.33m-4.32 3.435c-.68 0-1.37.063-2.183.173l-.888-3.094-.218-.761c1.943-.877 2.977-1.555 4.67-3.336l2.164 7.54c-1.444-.368-2.482-.522-3.545-.522m-6.199.664c-.452-.248-.779-.659-.921-1.156-.294-1.021.297-2.09 1.314-2.383l1.37-.392.63 2.194.432 1.506-1.374.394c-.49.14-1.005.083-1.45-.163m11.714-4.76c-.132-.46-.414-.813-.818-1.02-.52-.269-1.13-.237-1.552-.163l-.892-3.11c-.06-.211-.233-.373-.449-.423-.216-.049-.442.022-.59.186C9.45 5.614 8.553 6.202 6.155 7.25l-1.886.54c-1.66.477-2.624 2.216-2.147 3.876.232.808.765 1.477 1.502 1.882.47.258.986.39 1.508.39.247 0 .495-.032.74-.091l.203.71c.108.374.314.712.597.978l.317.298c.118.111.268.166.419.166.16 0 .322-.063.442-.189.23-.242.22-.625-.024-.855l-.317-.298c-.124-.117-.215-.266-.263-.431l-.203-.71.877-.25c2.525-.375 3.663-.349 6.752.529.055.015.11.023.167.023.159 0 .314-.062.43-.177.156-.155.216-.382.155-.594l-.89-3.104c.4-.15.935-.43 1.236-.92.237-.383.292-.83.16-1.293" transform="translate(-20 -350) translate(0 47) translate(0 294) translate(20 9)"/>
                    </g>
                </g>
            </g>
        </g>
    </g>
</svg>
