<svg xmlns="http://www.w3.org/2000/svg" width="19" height="18" viewBox="0 0 19 18">
    <g fill="none" fill-rule="evenodd">
        <g fill="#4A4A4A">
            <g>
                <g>
                    <g>
                        <path d="M13.235 9.168v6.217c0 .34-.339.615-.72.615H2.69C2.31 16 2 15.724 2 15.385V3.665c0-.34.31-.588.691-.588h7.186c.382 0 .691.275.691.615 0 .34-.31.616-.691.616H3.383v10.461h8.469v-5.6c0-.34.31-.616.691-.616.382 0 .692.276.692.615zm-5.29.552l-.83.294.333-.758L14.24 3.12l.512.462-6.807 6.14zm7.906-6.463l-1.242-1.12C14.512 2.05 14.38 2 14.24 2c-.139 0-.272.05-.37.138L6.635 8.676c-.049.045-.088.098-.113.156l-.805 1.834c-.076.17-.03.365.117.495.099.088.23.134.365.134.065 0 .13-.01.192-.032l2.04-.72c.066-.024.127-.06.177-.105l7.244-6.532c.199-.18.199-.47 0-.649z" transform="translate(-20 -393) translate(0 47) translate(0 337) translate(20 9)"/>
                    </g>
                </g>
            </g>
        </g>
    </g>
</svg>
