<svg xmlns="http://www.w3.org/2000/svg" width="19" height="18" viewBox="0 0 19 18">
    <g fill="none" fill-rule="evenodd">
        <g fill="#9B9B9B">
            <g>
                <g>
                    <g>
                        <path d="M14 2v1h2v2c0 1.447-1.025 2.655-2.389 2.938-.695 1.652-2.253 2.852-4.11 3.037L9.5 14.7h1.85c.359 0 .65.291.65.65 0 .359-.291.65-.65.65h-4.7c-.359 0-.65-.291-.65-.65 0-.359.291-.65.65-.65H8.5v-3.725c-1.857-.184-3.416-1.385-4.111-3.038C3.025 7.655 2 6.447 2 5V3h2V2h10zm-1.3 1.3H5.3V6c0 1.978 1.551 3.593 3.503 3.695L9 9.7c1.978 0 3.593-1.551 3.695-3.503L12.7 6V3.3zM4 4H3v1c0 .703.363 1.321.911 1.678L4 6.73V4zm11 0h-1v2.731l.089-.053c.503-.327.85-.874.904-1.504L15 5V4z" transform="translate(-20 -261) translate(0 47) translate(0 205) translate(20 9)"/>
                    </g>
                </g>
            </g>
        </g>
    </g>
</svg>
