<svg xmlns="http://www.w3.org/2000/svg" width="100" height="100" viewBox="0 0 100 100">
    <defs>
        <linearGradient id="r9gwso6xea" x1="100%" x2="0%" y1="70.697%" y2="29.303%">
            <stop offset="0%" stop-color="#FFD31D"/>
            <stop offset="100%" stop-color="#FBB12E"/>
        </linearGradient>
        <linearGradient id="3v6oft71lb" x1="30.359%" x2="100%" y1="49.481%" y2="50.62%">
            <stop offset="0%" stop-color="#FFEB42"/>
            <stop offset="100%" stop-color="#FFD31D"/>
        </linearGradient>
        <linearGradient id="wye17uh9pc" x1="30.359%" x2="100%" y1="49.481%" y2="50.62%">
            <stop offset="0%" stop-color="#FFD31D"/>
            <stop offset="100%" stop-color="#FFEB42"/>
        </linearGradient>
    </defs>
    <g fill="none" fill-rule="evenodd">
        <g>
            <g transform="translate(-328 -533) translate(328 533)">
                <rect width="100" height="100" fill="#FFF" rx="50"/>
                <g transform="translate(16 16)">
                    <path fill="url(#r9gwso6xea)" d="M21.25 19.104c3.138 0 5.878-1.7 7.35-4.23h2.3c1.472 2.53 4.212 4.23 7.35 4.23s5.878-1.7 7.35-4.23h2.3c1.472 2.53 4.212 4.23 7.35 4.23s5.878-1.7 7.35-4.23l1.156.001v38.25H4.304V19.102l.201-.002c3.03-.09 5.663-1.765 7.096-4.225h2.298c1.473 2.529 4.213 4.229 7.351 4.229z"/>
                    <path fill="#FFF" d="M60.875 32.166h2.25v1.5h-2.25c-.414 0-.75-.335-.75-.75 0-.414.336-.75.75-.75z" transform="matrix(1 0 0 -1 0 65.833)"/>
                    <rect width="1.5" height="1.5" x="17.313" y="23.666" fill="#D8D8D8" rx=".75" transform="matrix(1 0 0 -1 0 48.833)"/>
                    <rect width="3" height="1.5" x="7" y="44.916" fill="#FFF" rx=".75" transform="matrix(1 0 0 -1 0 91.333)"/>
                    <path stroke="url(#3v6oft71lb)" stroke-width="1.5" d="M4.304 30.304c1.243 0 3.058-1.237 5.447-3.711.575-.596 1.525-.613 2.12-.038l.016.015 3.444 3.423c1.172 1.165 3.065 1.163 4.234-.004l3.45-3.443c.586-.585 1.536-.585 2.121.002l.007.007 3.345 3.397c1.162 1.18 3.062 1.195 4.242.033l.01-.01 3.462-3.439c.589-.582 1.538-.58 2.123.006l3.438 3.454c1.16 1.165 3.04 1.18 4.219.033l3.613-3.518c.588-.572 1.527-.566 2.107.014l2.542 2.541c1.172 1.171 3.071 1.171 4.243 0 .099-.1.19-.205.274-.317 1.16-1.54 2.825-2.31 4.995-2.31"/>
                    <path stroke="url(#wye17uh9pc)" stroke-width="1.5" d="M4.304 43.054c1.243 0 3.058-1.237 5.447-3.711.575-.596 1.525-.613 2.12-.038l.016.015 3.444 3.423c1.172 1.165 3.065 1.163 4.234-.004l3.45-3.443c.586-.585 1.536-.585 2.121.002l.007.007 3.345 3.397c1.162 1.18 3.062 1.195 4.242.033l.01-.01 3.462-3.439c.589-.582 1.538-.58 2.123.006l3.438 3.454c1.16 1.165 3.04 1.18 4.219.033l3.613-3.518c.588-.572 1.527-.566 2.107.014l2.542 2.541c1.172 1.171 3.071 1.171 4.243 0 .099-.1.19-.205.274-.317 1.16-1.54 2.825-2.31 4.995-2.31"/>
                    <path fill="#4A4A4A" fill-rule="nonzero" d="M44.625 25.479c4.694 0 8.5 3.805 8.5 8.5 0 4.694-3.806 8.5-8.5 8.5s-8.5-3.806-8.5-8.5c0-4.695 3.806-8.5 8.5-8.5zm0 4.25c-2.347 0-4.25 1.903-4.25 4.25s1.903 4.25 4.25 4.25 4.25-1.903 4.25-4.25-1.903-4.25-4.25-4.25z"/>
                </g>
            </g>
        </g>
    </g>
</svg>
