<svg xmlns="http://www.w3.org/2000/svg" width="100" height="100" viewBox="0 0 100 100">
    <defs>
        <linearGradient id="lpge8pbg1a" x1="0%" x2="100%" y1="43.754%" y2="55.049%">
            <stop offset="0%" stop-color="#FFD51D"/>
            <stop offset="100%" stop-color="#F7981F"/>
        </linearGradient>
        <linearGradient id="lnd1937l4b" x1="-10.549%" x2="100%" y1="50%" y2="50%">
            <stop offset="0%" stop-color="#FFEB42"/>
            <stop offset="100%" stop-color="#FFD31D"/>
        </linearGradient>
    </defs>
    <g fill="none" fill-rule="evenodd">
        <g>
            <g transform="translate(-328 -825) translate(328 825)">
                <rect width="100" height="100" fill="#FFF" rx="50"/>
                <g>
                    <path fill="url(#lpge8pbg1a)" d="M30.679 35.196c1.595 1.596 1.595 4.182 0 5.777l-5.777 5.777 5.777 5.777c1.595 1.595 1.595 4.181 0 5.777-1.596 1.595-4.182 1.595-5.777 0l-5.777-5.777-5.777 5.777c-1.595 1.595-4.181 1.595-5.777 0-1.595-1.596-1.595-4.182 0-5.777l5.777-5.777-5.777-5.777c-1.595-1.595-1.595-4.181 0-5.777 1.596-1.595 4.182-1.595 5.777 0l5.777 5.777 5.777-5.777c1.595-1.595 4.181-1.595 5.777 0z" transform="translate(16 16) rotate(45 19.125 46.75)"/>
                    <path fill="#979797" d="M17 59.5L19.125 59.5 19.125 61.625 17 61.625z" transform="translate(16 16) rotate(90 18.062 60.563)"/>
                    <path fill="url(#lnd1937l4b)" d="M59.335 8.603c1.595 1.595 1.595 4.181 0 5.776l-5.777 5.777 5.777 5.777c1.595 1.595 1.595 4.182 0 5.777-1.595 1.595-4.182 1.595-5.777 0l-5.777-5.777-5.777 5.777c-1.595 1.595-4.181 1.595-5.776 0-1.596-1.595-1.596-4.182 0-5.777l5.776-5.777-5.776-5.777c-1.596-1.595-1.596-4.181 0-5.776 1.595-1.596 4.181-1.596 5.776 0l5.777 5.776 5.777-5.776c1.595-1.596 4.182-1.596 5.777 0z" transform="translate(16 16) rotate(45 47.781 20.156)"/>
                    <path fill="#FFF" d="M48.875 6.375L51 6.375 51 8.5 48.875 8.5z" transform="translate(16 16) rotate(90 49.938 7.437)"/>
                </g>
            </g>
        </g>
    </g>
</svg>
