<svg xmlns="http://www.w3.org/2000/svg" width="20" height="20" viewBox="0 0 20 20">
    <defs>
        <linearGradient id="beghoc7bja" x1="50%" x2="50%" y1="2.136%" y2="100%">
            <stop offset="0%" stop-color="#FFD521"/>
            <stop offset="100%" stop-color="#FFEC42"/>
        </linearGradient>
        <linearGradient id="aae0xstqib" x1="0%" x2="100%" y1="0%" y2="100%">
            <stop offset="0%" stop-color="#FFD51D"/>
            <stop offset="100%" stop-color="#F7981F"/>
        </linearGradient>
    </defs>
    <g fill="none" fill-rule="evenodd">
        <g>
            <g>
                <g>
                    <g transform="translate(-577 -763) translate(569 753) translate(8 10) translate(1.875 1.875)">
                        <circle cx="8.125" cy="8.125" r="8.125" fill="url(#beghoc7bja)"/>
                        <circle cx="8.125" cy="8.125" r="6.964" fill="url(#aae0xstqib)"/>
                        <path fill="#4A4A4A" d="M7.545 1.741H8.706V2.741H7.545z"/>
                        <path fill="#FFF" d="M7.545 13.929H8.706V14.929H7.545z"/>
                        <path fill="#FFF" d="M9.32 3.815c.16 0 .29.13.29.29v4.063c0 .16-.13.29-.29.29-.16 0-.29-.13-.29-.29V4.105c0-.16.13-.29.29-.29z" transform="rotate(45 9.32 6.136)"/>
                        <path fill="#FFF" d="M9.766 7.565c.16 0 .29.13.29.29v4.643c0 .16-.13.29-.29.29-.16 0-.29-.13-.29-.29V7.855c0-.16.13-.29.29-.29z" transform="rotate(-45 9.766 10.177)"/>
                        <circle cx="2.321" cy="7.835" r="1" fill="#D8D8D8"/>
                        <circle cx="4.614" cy="12.591" r="1" fill="#D8D8D8" transform="rotate(-30 4.614 12.59)"/>
                        <circle cx="4.71" cy="3.443" r="1" fill="#D8D8D8" transform="rotate(30 4.71 3.443)"/>
                        <circle cx="11.674" cy="3.443" r="1" fill="#D8D8D8" transform="rotate(-30 11.674 3.443)"/>
                        <circle cx="13.929" cy="7.835" r="1" fill="#D8D8D8"/>
                        <circle cx="7.835" cy="7.835" r="1" fill="url(#beghoc7bja)"/>
                    </g>
                </g>
            </g>
        </g>
    </g>
</svg>
