<svg xmlns="http://www.w3.org/2000/svg" width="16" height="16" viewBox="0 0 16 16">
    <g fill="none" fill-rule="evenodd">
        <g fill="#333">
            <path d="M10.083 3c.23 0 .417.187.417.417l-.001.416h.834c.92 0 1.667.747 1.667 1.667v5.833c0 .92-.746 1.667-1.667 1.667H4.667C3.747 13 3 12.254 3 11.333V5.5c0-.92.746-1.667 1.667-1.667H5.5v-.416c0-.23.187-.417.417-.417.23 0 .416.187.416.417v.416h3.333v-.416c0-.23.187-.417.417-.417zm2.084 4.167H3.833v4.166c0 .428.322.78.736.828l.098.006h6.666c.428 0 .78-.322.828-.736l.006-.098V7.167zM5.5 4.666h-.833c-.428 0-.78.322-.828.737l-.006.097v.833h8.334V5.5c0-.427-.322-.78-.736-.828l-.098-.005-.834-.001.001.417c0 .23-.187.417-.417.417-.23 0-.416-.187-.416-.417l-.001-.417H6.333v.417c0 .23-.186.417-.416.417-.23 0-.417-.187-.417-.417v-.417z"/>
        </g>
    </g>
</svg>
