<svg xmlns="http://www.w3.org/2000/svg" width="24" height="24" viewBox="0 0 24 24">
    <g fill="none" fill-rule="evenodd">
        <g>
            <circle cx="12" cy="12" r="12" fill="#FFF"/>
            <path fill="#9B9B9B" d="M16.978 12.248c.343-.333.897-.33 1.237.006.312.309.335.79.072 1.125l-.078.087-3.144 3.135 3.221 3.173c.312.308.335.79.072 1.125l-.078.087c-.315.305-.807.329-1.149.071l-.089-.077-3.789-3.802c-.312-.308-.335-.79-.072-1.125l.078-.087 3.719-3.718z" transform="rotate(-135 15.77 16.617)"/>
            <path fill="#9B9B9B" d="M9.431 2.854c.344-.333.898-.33 1.238.006.311.309.335.79.072 1.125l-.079.087L7.52 7.207l3.22 3.173c.312.308.336.79.073 1.125l-.079.087c-.315.306-.806.329-1.148.071l-.09-.077-3.788-3.802c-.312-.308-.336-.79-.073-1.125l.08-.087L9.43 2.854z" transform="rotate(45 8.223 7.223)"/>
        </g>
    </g>
</svg>
