<svg xmlns="http://www.w3.org/2000/svg" width="18" height="18" viewBox="0 0 18 18">
    <g fill="none" fill-rule="evenodd">
        <g fill="#4A4A4A">
            <g>
                <g>
                    <g>
                        <path d="M14.033 5.043c2.186 2.185 2.185 5.73-.002 7.916-1.54 1.541-3.81 2.034-5.829 1.32-.338-.12-.515-.49-.396-.829.12-.338.491-.516.83-.396 1.55.548 3.292.17 4.476-1.014 1.679-1.679 1.68-4.4.002-6.078-1.172-1.172-2.893-1.554-4.435-1.026-.34.117-.709-.064-.825-.404-.117-.34.064-.71.404-.826 2.006-.687 4.249-.19 5.775 1.337zm-9.04.764c.155 0 .31.062.43.187.238.252.24.663.003.918L4.071 8.37l7.377-.019c.337 0 .61.29.61.648.001.358-.27.649-.607.65l-7.386.018 1.361 1.465c.237.255.235.665-.004.917s-.624.25-.86-.004L2.175 9.478c-.235-.252-.235-.66 0-.912l2.385-2.567c.12-.128.276-.192.433-.192z" transform="translate(-20 -979) translate(0 47) translate(0 923) translate(20 9)"/>
                    </g>
                </g>
            </g>
        </g>
    </g>
</svg>
