<svg xmlns="http://www.w3.org/2000/svg" xmlns:xlink="http://www.w3.org/1999/xlink" width="32" height="32" viewBox="0 0 32 32">
    <defs>
        <linearGradient id="nbs8l8qaga" x1="10.581%" x2="77.133%" y1="40.168%" y2="58.985%">
            <stop offset="0%" stop-color="#FFEB42"/>
            <stop offset="100%" stop-color="#FFD31D"/>
        </linearGradient>
        <linearGradient id="y8i7wwe2oc" x1="0%" x2="100%" y1="50%" y2="50%">
            <stop offset="0%" stop-color="#FFD51D"/>
            <stop offset="100%" stop-color="#F7981F"/>
        </linearGradient>
        <path id="sanrv9spzb" d="M10.7 6.872c4.992.705 8.843 4.84 8.896 9.84-1.13.467-2.371.706-3.664.667-.792-4.068-3.928-7.315-7.953-8.297.78-.873 1.698-1.62 2.72-2.21m13.875 2.671c-.143 1.028-.47 1.993-.948 2.861-.586-2.755-2.27-5.121-4.583-6.638 2.238.611 4.176 1.962 5.531 3.777m-8.297 16.342c.578.098 1.156.15 1.732.15.912 0 1.816-.123 2.693-.354-1.142.587-2.391.97-3.707 1.106-.268-.28-.505-.583-.718-.902m-.674-1.067c-.246-.616-.389-1.266-.433-1.923.72.144 1.44.216 2.154.216 3.787 0 7.352-1.974 9.463-5.175-.292 1.676-.963 3.223-1.924 4.547-2.492 2.237-5.952 3.188-9.26 2.335m10.618-12.414c.297.85.49 1.748.566 2.678-1.767 4.76-6.723 7.579-11.617 6.495.094-.78.335-1.545.73-2.257l.044.001c4.592 0 8.614-2.832 10.277-6.917m-3.306 1.411c-.642.757-1.411 1.403-2.273 1.908-.292-4.699-3.682-8.61-8.238-9.883.961-.346 1.985-.561 3.05-.627 4.041 1.096 7.08 4.489 7.46 8.602M9.662 20.393c.148-2.157 1.008-4.166 2.447-5.776.925 1.275 1.485 2.82 1.53 4.491-1.144 2.48-.968 5.36.426 7.68-1.137-.203-2.214-.576-3.2-1.098-.909-1.594-1.332-3.418-1.203-5.297m-4.448-4.67c.006-1.8.502-3.495 1.372-4.978.477.057.943.15 1.394.275-1.386 1.346-2.312 2.97-2.766 4.703m.76 5.125c-.669-3.24.286-6.655 2.813-8.997.948.441 1.798 1.05 2.512 1.784-1.72 1.846-2.75 4.177-2.923 6.683-.102 1.47.096 2.91.569 4.256-1.25-1.01-2.27-2.281-2.971-3.726M3 16c0 4.048 1.85 7.663 4.75 10.047.029.033.08.074.156.122C10.126 27.939 12.939 29 16 29c7.18 0 13-5.82 13-13S23.18 3 16 3 3 8.82 3 16z"/>
    </defs>
    <g fill="none" fill-rule="evenodd">
        <g>
            <path fill="url(#nbs8l8qaga)" d="M20.92 26.164c6.874.104 12.671-5.897 12.671-13.352.039.076-4.947 10.546-13.256 9.989-8.31-.558-12.36-9.377-12.334-9.447 0 7.456 6.045 12.706 12.92 12.81z" transform="rotate(-54 20.796 19.489)"/>
            <use fill="url(#y8i7wwe2oc)" xlink:href="#sanrv9spzb"/>
            <circle cx="7.5" cy="24.5" r="1" fill="#D8D8D8"/>
            <circle cx="22.5" cy="5.5" r="1" fill="#FFF"/>
        </g>
    </g>
</svg>
