<svg xmlns="http://www.w3.org/2000/svg" width="160" height="46" viewBox="0 0 160 46">
    <defs>
        <linearGradient id="5vozfkr5ra" x1="100%" x2="0%" y1="45.867%" y2="54.133%">
            <stop offset="0%" stop-color="#4A4A4A"/>
            <stop offset="100%" stop-color="#1C1C1C"/>
        </linearGradient>
    </defs>
    <g fill="none" fill-rule="evenodd">
        <g>
            <g>
                <g>
                    <path fill="url(#5vozfkr5ra)" d="M0 0H160V46H0z" transform="translate(0 -2) translate(0 2)"/>
                    <path fill="#FFF" d="M81.626 13.57s.766-.235 1.483.248c.169.114.854.728 1.577 1.387l.334.306c.834.764 1.619 1.495 1.619 1.495s.383.279-.092.755c-.297.327-1.356 1.282-1.644 1.569l-.2.2c-.172.172-.41.413-.658.665l-.25.253-.97.986s-.118.1-.159.187c-.033.07-.042.195-.042.195l-.213 2.227s-.2 1.042.027 1.419c.106.178.547.525 1.025.898l.36.282c.417.329.805.649.963.863.323.436 2.103 2.712 2.33 2.99.227.279.498.55.674.589.306.068 1.74-.438 2.27-.484.804-.07 1.54-.064 1.786-.06.245.004.234 0 .382-.023.39-.062.612-.561.916-.415.428.204 1.211.703 1.518.896l.307.19c.205.13.407.276.595.501.345.412.605.762.303.906-.142.068-1.975-.014-3.21-.023h-.367c-.228.002-.419.008-.55.02-1.017.097-5.488 2.173-5.76 2.244-.272.07-.597.19-.946.16-.348-.032-1.24-.683-1.711-1.015l-.314-.222-.339-.244c-.333-.24-.622-.451-.622-.451s-1.966-1.64-2.322-2.143c-.426-.6-.666-1.344-.812-1.821-.146-.476-.279-1.017-.392-1.218-.112-.2-1.615-1.88-1.893-2.222-.174-.213-.463-.549-.463-.549s-.049-.073-.1-.089c-.04-.012-.111.007-.111.007l-10.047 3.739-.349.371s-.073.086-.137.116c-.066.031-.188.03-.188.03l-.603.069-.352.193c-.155.085-.422-.021-.185-.305.238-.281.92-.936.92-.936s.199-.254.342-.289c.142-.035 1.039-.222 1.26-.331.102-.05 1.46-.802 2.892-1.598l.717-.398 2.727-1.517s.509-.432.575-.543c.067-.11 2.013-1.17 2.247-1.245.522-.167.686-.251.82-.292.196-.058 1.121-.56 1.206-.633.265-.231.167-.61-.203-.853-.278-.183-.658-.333-.658-.333s-.1-.044-.134-.101c-.033-.054.011-.168.011-.168l.006-.015c.057-.156.547-1.492.754-1.776.251-.345 1.009-1.138 2.06-.759 1.052.38 1.274.8 1.325 1.302.03.288-.271 1.002-.271 1.002s-.01.044.008.06c.019.014.064-.008.064-.008s3.236-1.806 3.457-1.927c.256-.139.244-.266.037-.74-.075-.174-1.042-1.657-1.245-1.967l-.037-.057s-1.063.195-1.356.354c-.352.19-.626.352-.626.352s-.24-.235.022-.48.444-.347.444-.347l-.778-.799s-.058-.104-.045-.173c.017-.094.178-.174.178-.174zM69.446 11c1.507.027 2.707 1.226 2.681 2.679-.026 1.454-1.269 2.61-2.775 2.586-1.507-.025-2.707-1.225-2.681-2.679.026-1.453 1.269-2.61 2.775-2.586z" transform="translate(0 -2) translate(0 2)"/>
                </g>
            </g>
        </g>
    </g>
</svg>
