<svg xmlns="http://www.w3.org/2000/svg" width="19" height="18" viewBox="0 0 19 18">
    <g fill="none" fill-rule="evenodd">
        <g fill="#9B9B9B">
            <g>
                <g>
                    <g>
                        <path d="M14.5 4c.828 0 1.5.672 1.5 1.5v7c0 .828-.672 1.5-1.5 1.5h-11c-.828 0-1.5-.672-1.5-1.5v-7C2 4.672 2.672 4 3.5 4h11zm0 1.3h-11c-.092 0-.17.062-.193.147L3.3 5.5v7c0 .092.062.17.147.193l.053.007h11c.092 0 .17-.062.193-.147l.007-.053v-7c0-.092-.062-.17-.147-.193L14.5 5.3zm-2 4.2c.276 0 .5.224.5.5s-.224.5-.5.5h-3c-.276 0-.5-.224-.5-.5s.224-.5.5-.5h3zm-6.65-2c.608 0 1.1.492 1.1 1.1 0 .608-.492 1.1-1.1 1.1-.608 0-1.1-.492-1.1-1.1 0-.608.492-1.1 1.1-1.1zm6.65 0c.276 0 .5.224.5.5s-.224.5-.5.5h-2c-.276 0-.5-.224-.5-.5s.224-.5.5-.5h2z" transform="translate(-20 -173) translate(0 47) translate(0 117) translate(20 9)"/>
                    </g>
                </g>
            </g>
        </g>
    </g>
</svg>
