<svg xmlns="http://www.w3.org/2000/svg" width="19" height="18" viewBox="0 0 19 18">
    <defs>
        <filter id="bcwts0j3qa">
            <feColorMatrix in="SourceGraphic" values="0 0 0 0 0.607892 0 0 0 0 0.607803 0 0 0 0 0.607923 0 0 0 1.000000 0"/>
        </filter>
    </defs>
    <g fill="none" fill-rule="evenodd">
        <g>
            <g>
                <g>
                    <g filter="url(#bcwts0j3qa)" transform="translate(-20 -217) translate(0 47) translate(0 161) translate(20 9)">
                        <g stroke="#979797" stroke-width="1.3" transform="translate(3 2)">
                            <circle cx="6" cy="3" r="2.35"/>
                            <path d="M6 7.65c1.109 0 2.61.472 3.77 1.147.821.48 1.58 1.054 1.58 1.703 0 .742-.536 1.445-1.425 1.964-.933.544-2.258.886-3.925.886-1.712 0-3.064-.319-4.002-.866C1.146 11.987.65 11.296.65 10.5c0-.696.707-1.267 1.501-1.73C3.321 8.088 4.866 7.65 6 7.65h0z"/>
                        </g>
                    </g>
                </g>
            </g>
        </g>
    </g>
</svg>
