<svg xmlns="http://www.w3.org/2000/svg" width="18" height="18" viewBox="0 0 18 18">
    <g fill="none" fill-rule="evenodd">
        <g fill="#9B9B9B">
            <g>
                <g>
                    <path d="M14.363 3.649c2.147 2.148 2.147 5.63 0 7.778-1.956 1.956-5.018 2.13-7.172.525l-3.824 3.824c-.254.254-.665.254-.92 0-.253-.254-.253-.666 0-.92l3.8-3.798c-1.804-2.16-1.691-5.38.337-7.41 2.148-2.147 5.63-2.147 7.779 0zm-6.86.92c-1.64 1.64-1.64 4.299 0 5.939 1.64 1.64 4.3 1.64 5.94 0 1.64-1.64 1.64-4.3 0-5.94-1.64-1.64-4.3-1.64-5.94 0z" transform="translate(-256 -94) translate(240 87) translate(16 7) matrix(-1 0 0 1 18.231 0)"/>
                </g>
            </g>
        </g>
    </g>
</svg>
