<svg xmlns="http://www.w3.org/2000/svg" width="18" height="18" viewBox="0 0 18 18">
    <path fill="none" stroke="#4A4A4A" stroke-width="1.111" d="M10.605 15.262c-1.811.474-4.16.23-6.359-.647-.754-.301.398-2.885 1.152-2.584 1.621.647 3.299.821 4.415.529.8-.21 1.017-.495.875-1.072-.101-.415-.474-.644-1.84-1.044l-.25-.072C5.706 9.547 4.46 8.704 4.46 6.346c0-2.392 1.766-3.662 4.289-3.827 1.64-.108 3.663.26 5.01.81.751.306-.422 2.88-1.174 2.574-.93-.379-2.486-.662-3.631-.587-1.137.075-1.53.357-1.53 1.03 0 .62.276.831 1.83 1.283l.248.072c2.526.72 3.634 1.354 4.075 3.155.526 2.15-.737 3.82-2.972 4.406z"/>
</svg>
