<svg xmlns="http://www.w3.org/2000/svg" width="87" height="36" viewBox="0 0 87 36">
    <path fill="#6772E5" d="M6.053 14.044c0-.933.766-1.292 2.034-1.292 1.818 0 4.115.55 5.933 1.531V8.661c-1.986-.79-3.947-1.1-5.933-1.1C3.23 7.56 0 10.095 0 14.33c0 6.604 9.092 5.55 9.092 8.398 0 1.1-.957 1.46-2.297 1.46-1.986 0-4.522-.814-6.532-1.915v5.695c2.225.957 4.474 1.363 6.532 1.363 4.976 0 8.398-2.464 8.398-6.747-.024-7.13-9.14-5.861-9.14-8.54zM22.227 2.775L16.389 4.02l-.024 19.165c0 3.54 2.656 6.148 6.196 6.148 1.962 0 3.398-.359 4.187-.79v-4.856c-.765.311-4.545 1.412-4.545-2.13v-8.493h4.545V7.967h-4.545l.024-5.192zm11.962 6.963l-.383-1.77H28.64v20.934h5.98V14.714c1.412-1.842 3.805-1.507 4.547-1.244V7.967c-.766-.287-3.565-.813-4.977 1.77zm6.436-1.77h6.005v20.934h-6.005V7.967zm0-1.82l6.005-1.291V0l-6.005 1.268v4.88zM59.119 7.56c-2.344 0-3.852 1.1-4.69 1.867l-.31-1.484h-5.264V35.84l5.982-1.268.024-6.77c.86.621 2.129 1.506 4.234 1.506 4.283 0 8.183-3.445 8.183-11.03-.024-6.937-3.972-10.718-8.159-10.718zm-1.435 16.485c-1.412 0-2.25-.503-2.823-1.125l-.024-8.876c.622-.694 1.483-1.172 2.847-1.172 2.177 0 3.684 2.44 3.684 5.574 0 3.206-1.483 5.599-3.684 5.599zm28.447-5.527c0-6.125-2.967-10.958-8.637-10.958-5.694 0-9.14 4.833-9.14 10.91 0 7.202 4.068 10.838 9.905 10.838 2.848 0 5-.646 6.628-1.555v-4.785c-1.627.814-3.493 1.316-5.862 1.316-2.32 0-4.378-.813-4.641-3.637h11.699c0-.31.048-1.555.048-2.129zm-11.82-2.273c0-2.703 1.652-3.828 3.159-3.828 1.46 0 3.014 1.125 3.014 3.828h-6.172z"/>
</svg>
